<?xml version="1.0" encoding="UTF-8" standalone="no"?>
<svg
   xmlns:dc="http://purl.org/dc/elements/1.1/"
   xmlns:cc="http://creativecommons.org/ns#"
   xmlns:rdf="http://www.w3.org/1999/02/22-rdf-syntax-ns#"
   xmlns:svg="http://www.w3.org/2000/svg"
   xmlns="http://www.w3.org/2000/svg"
   xmlns:sodipodi="http://sodipodi.sourceforge.net/DTD/sodipodi-0.dtd"
   xmlns:inkscape="http://www.inkscape.org/namespaces/inkscape"
   version="1.1"
   id="svg2"
   width="225"
   height="225"
   viewBox="0 0 225 225"
   sodipodi:docname="uos-logo.svg"
   inkscape:version="1.0.1 (3bc2e813f5, 2020-09-07)">
  <metadata
     id="metadata8">
    <rdf:RDF>
      <cc:Work
         rdf:about="">
        <dc:format>image/svg+xml</dc:format>
        <dc:type
           rdf:resource="http://purl.org/dc/dcmitype/StillImage" />
        <dc:title />
      </cc:Work>
    </rdf:RDF>
  </metadata>
  <defs
     id="defs6" />
  <sodipodi:namedview
     pagecolor="#ffffff"
     bordercolor="#666666"
     borderopacity="1"
     objecttolerance="10"
     gridtolerance="10"
     guidetolerance="10"
     inkscape:pageopacity="0"
     inkscape:pageshadow="2"
     inkscape:window-width="1456"
     inkscape:window-height="792"
     id="namedview4"
     showgrid="false"
     inkscape:zoom="2.5129362"
     inkscape:cx="109.03516"
     inkscape:cy="122.81189"
     inkscape:window-x="0"
     inkscape:window-y="0"
     inkscape:window-maximized="1"
     inkscape:current-layer="g10"
     inkscape:document-rotation="0" />
  <g
     inkscape:groupmode="layer"
     inkscape:label="Image"
     id="g10">
    <path
       style="font-variation-settings:normal;opacity:1;vector-effect:none;fill:#ad0e33;fill-opacity:1;stroke-width:0.764763;stroke-linecap:butt;stroke-linejoin:miter;stroke-miterlimit:4;stroke-dasharray:none;stroke-dashoffset:0;stroke-opacity:1;stop-color:#000000;stop-opacity:1"
       d="M 0,68.721119 V 0 H 107.713 215.42601 V 68.721119 137.44224 H 107.713 0 Z"
       id="path859"
       sodipodi:nodetypes="ccccccccc" />
    <path
       style="font-variation-settings:normal;opacity:1;vector-effect:none;fill:#000000;fill-opacity:1;stroke-width:0.58178;stroke-linecap:butt;stroke-linejoin:miter;stroke-miterlimit:4;stroke-dasharray:none;stroke-dashoffset:0;stroke-opacity:1;stop-color:#000000;stop-opacity:1"
       d="m 0,177.21209 v -39.76985 h 107.713 107.71301 v 39.76985 39.76984 H 107.713 0 Z"
       id="path859-7"
       sodipodi:nodetypes="ccccccccc" />
    <path
       style="fill:#ffffff;fill-opacity:1"
       d="M 0,112.5 V 0 H 112.5 225 V 112.5 225 H 112.5 0 Z m 53.31218,81.57141 c 4.37344,-1.66278 6.14413,-11.6502 3.28056,-18.50371 -1.60161,-3.83318 -5.54604,-5.29635 -9.85821,-3.65687 C 43.05492,173.30982 42,175.88753 42,183.47971 c 0,5.68596 0.34351,6.95471 2.45454,9.06574 2.61918,2.61918 4.93357,3.01789 8.85764,1.52596 z m -5.64551,-3.73808 C 47.3,189.96667 47,186.57754 47,182.80195 c 0,-5.44775 0.33947,-6.99499 1.64461,-7.49581 3.43337,-1.31751 5.59263,6.47522 3.7251,13.44386 -0.57065,2.12938 -3.25371,3.03267 -4.70304,1.58333 z m 23.3733,2.83539 c 3.2179,-2.6057 2.07772,-6.26531 -2.65518,-8.52227 -2.92252,-1.39365 -3.41652,-1.99932 -2.40617,-2.95007 0.98805,-0.92976 1.37352,-0.91781 1.72971,0.0536 C 68.17544,183.02394 73,183.55159 73,182.32874 73,180.5993 69.41885,178 67.03614,178 c -5.83028,0 -8.26014,6.09759 -3.39279,8.51401 4.01523,1.99338 5.53444,3.70965 4.33171,4.89361 -0.80466,0.7921 -1.4651,0.61134 -2.40262,-0.65762 C 63.82152,188.38009 61,188.50369 61,190.95031 c 0,3.94289 6.21456,5.31604 10.03997,2.21841 z m 31.21003,0.76111 c 2.71467,0.10063 2.75,0.0224 2.75,-6.0852 0,-4.35388 -0.49038,-6.72901 -1.65499,-8.01589 -1.87869,-2.07593 -7.32348,-2.45027 -9.14501,-0.62874 -1.84019,1.84019 -1.4276,3.8 0.8,3.8 1.1,0 2,-0.45 2,-1 0,-0.55 0.675,-1 1.5,-1 0.825,0 1.5,0.675 1.5,1.5 0,0.825 -0.79987,1.5 -1.77749,1.5 C 95.32437,184 92,186.9305 92,189.48528 c 0,3.27388 2.76557,5.83826 5.39908,5.00631 1.1555,-0.36503 3.33842,-0.61783 4.85092,-0.56176 z M 97,189.58333 C 97,187.90283 97.54853,187 98.56955,187 c 1.04234,0 1.46221,0.72946 1.25,2.17167 C 99.34847,192.37317 97,192.71605 97,189.58333 Z m 23.02041,3.89207 c 1.67836,-2.02229 1.63097,-11.98561 -0.0667,-14.03122 -0.78288,-0.94331 -2.28473,-1.42289 -3.64286,-1.16326 C 114.2671,178.6716 114,178.33414 114,175.36133 114,172.44258 113.67083,172 111.5,172 H 109 v 11.11658 11.11657 l 2.52387,-0.48246 c 1.38812,-0.26536 2.76468,-0.0928 3.05901,0.38342 0.85768,1.38774 4.0612,0.99967 5.43753,-0.65871 z M 114,186.5 c 0,-4.08889 0.34804,-5.55065 1.25,-5.25 0.77011,0.2567 1.25,2.27222 1.25,5.25 0,2.97778 -0.47989,4.9933 -1.25,5.25 -0.90196,0.30065 -1.25,-1.16111 -1.25,-5.25 z m 32.29206,7.51365 2.79207,-0.0137 -0.29207,-7.75 c -0.26327,-6.98598 -0.48923,-7.75 -2.29206,-7.75 -1.73405,0 -2.06649,0.83333 -2.5,6.26695 -0.67611,8.47423 -2.42626,8.42397 -2.79713,-0.0803 -0.27813,-6.37757 -0.43804,-6.79333 -2.5,-6.5 -1.98224,0.28198 -2.23222,0.97795 -2.49595,6.94886 -0.32888,7.44603 1.34219,10.48933 5.19216,9.45581 1.1555,-0.31019 3.35735,-0.57014 4.89298,-0.57765 z m 16.48543,-0.57035 c 2.79216,-1.9557 2.9779,-5.4433 0.2899,-5.4433 -1.07161,0 -2.2232,0.91555 -2.58486,2.05505 -1.06375,3.35156 -2.95869,1.61643 -3.29667,-3.01863 -0.36926,-5.06423 1.25959,-7.46926 3.2417,-4.78642 1.55642,2.10664 4.57244,2.31866 4.57244,0.32143 0,-3.75678 -5.80306,-5.81757 -10.02271,-3.55928 -2.23828,1.1979 -3.44972,6.56042 -2.47973,10.97674 1.01761,4.63313 6.13971,6.35433 10.27993,3.45441 z M 81,187.5 c 0,-5.11111 0.32051,-6.5 1.5,-6.5 1.17949,0 1.5,1.38889 1.5,6.5 0,6.26667 0.0897,6.5 2.5,6.5 2.3919,0 2.5,-0.26228 2.5,-6.06574 0,-8.70476 -0.84997,-9.83224 -7.24742,-9.6137 L 76.5,178.5 l -0.29206,7.75 c -0.29059,7.71079 -0.27921,7.75 2.25,7.75 C 80.91996,194 81,193.79535 81,187.5 Z m 49,0.90638 c 0,-4.75262 0.3007,-5.67225 2,-6.11663 1.1,-0.28766 2,-1.33062 2,-2.31769 0,-1.47003 -0.76882,-1.7655 -4.25,-1.63337 l -4.25,0.16131 -0.29206,7.75 c -0.29059,7.71079 -0.27921,7.75 2.25,7.75 2.41978,0 2.54206,-0.26908 2.54206,-5.59362 z m 43.8184,2.16377 c -0.46881,-4.01566 0.40852,-3.85075 2.17271,0.40839 0.89651,2.16437 1.92629,3.02146 3.63021,3.02146 2.91003,0 2.91685,-0.16868 0.19768,-4.89333 l -2.18099,-3.78956 2.18099,-3.06293 c 2.63724,-3.70365 2.69263,-4.25154 0.431,-4.26319 -0.9625,-0.005 -2.875,1.36119 -4.25,3.0359 l -2.5,3.04492 0.33882,-6.03591 C 174.1708,172.1218 174.1254,172 171.58882,172 H 169 v 11 11 h 2.60941 c 2.38317,0 2.57469,-0.29736 2.20899,-3.42985 z M 141.81184,174.26148 C 141.30983,171.65475 138,171.36403 138,173.92668 c 0,1.43109 0.64223,2.07332 2.07332,2.07332 1.4311,0 1.96962,-0.53852 1.73852,-1.73852 z M 147,174 c 0,-1.1 -0.64844,-2 -1.44098,-2 -1.76659,0 -2.89606,1.64564 -2.05902,3 1.08749,1.7596 3.5,1.07031 3.5,-1 z M 55.25,161.22673 c 1.44567,-1.26946 1.75,-3.26091 1.75,-11.45127 0,-9.70978 -0.0465,-9.90796 -2.25,-9.59501 -2.11128,0.29985 -2.28083,0.90524 -2.75,9.81955 -0.45614,8.66667 -0.67544,9.5 -2.5,9.5 -1.82456,0 -2.04386,-0.83333 -2.5,-9.5 -0.46917,-8.91431 -0.63872,-9.5197 -2.75,-9.81955 -2.20353,-0.31295 -2.25,-0.11477 -2.25,9.59501 0,8.18463 0.30535,10.18532 1.75,11.46631 3.35516,2.97508 8.10193,2.96887 11.5,-0.015 z m 56.96434,-0.53929 C 113.49625,158.67139 113.0947,158 110.60699,158 c -1.31616,0 -2.66298,0.70352 -2.99294,1.56338 C 106.83606,161.59079 105,160.45125 105,157.94098 105,156.34317 105.70721,156 109,156 c 3.49579,0 4,-0.28708 4,-2.27749 0,-5.83303 -6.87787,-8.95298 -11.17126,-5.06752 -2.16578,1.96 -2.5383,10.05067 -0.57874,12.56952 2.26545,2.91205 8.98034,2.58313 10.96434,-0.53707 z M 105,151.5 c 0,-0.825 0.675,-1.5 1.5,-1.5 0.825,0 1.5,0.675 1.5,1.5 0,0.825 -0.675,1.5 -1.5,1.5 -0.825,0 -1.5,-0.675 -1.5,-1.5 z m 31.75,10.25517 c 2.48907,-1.99137 1.42576,-5.71892 -2.25,-7.88767 -1.925,-1.13578 -3.5,-2.4706 -3.5,-2.96628 0,-1.21498 1.7303,-1.14662 2.5,0.0988 0.90375,1.4623 4.5,1.22255 4.5,-0.3 0,-3.63691 -7.40815,-5.14899 -10.42857,-2.12857 -2.84351,2.84351 -1.69307,4.90263 5.07024,9.075 1.46927,0.90642 1.6035,1.41248 0.64111,2.41722 -0.97962,1.02273 -1.3421,0.94535 -1.85699,-0.39643 -0.88968,-2.31849 -5.68769,-2.26569 -5.24026,0.0577 0.706,3.66593 7.00656,4.87677 10.56447,2.03029 z m 31.75,1.13127 3,0.1467 -0.34217,-6.76657 c -0.18819,-3.72161 -0.80579,-7.32907 -1.37244,-8.01657 -1.45141,-1.76095 -7.3369,-1.55563 -9.21396,0.32143 C 158.31371,150.82915 158.63082,152 161.5,152 c 1.375,0 2.5,-0.45 2.5,-1 0,-0.55 0.675,-1 1.5,-1 0.825,0 1.5,0.675 1.5,1.5 0,0.84925 -0.89619,1.5 -2.06574,1.5 -3.91877,0 -5.93426,1.86308 -5.93426,5.48549 0,3.65986 2.33567,5.92895 5,4.85748 0.825,-0.33177 2.85,-0.53721 4.5,-0.45653 z m -5.07678,-3.22593 C 162.6724,157.70391 163.66658,156 165.55902,156 c 1.87963,0 1.85108,2.41476 -0.0472,3.99018 -1.20277,0.99821 -1.60332,0.93499 -2.08861,-0.32967 z M 66,156.5 c 0,-5.11111 0.32051,-6.5 1.5,-6.5 1.17949,0 1.5,1.38889 1.5,6.5 0,5.87796 0.19542,6.5 2.04206,6.5 1.90555,0 2.02254,-0.5181 1.75,-7.75 L 72.5,147.5 66.75,147.27383 61,147.04766 v 7.97617 C 61,162.86508 61.0423,163 63.5,163 c 2.41026,0 2.5,-0.23333 2.5,-6.5 z m 16,-1.56955 c 0,-7.79644 -0.0761,-8.05874 -2.25,-7.75 -2.08226,0.29573 -2.27177,0.89732 -2.54206,8.06955 -0.29059,7.71079 -0.27921,7.75 2.25,7.75 C 81.97067,163 82,162.9069 82,154.93045 Z M 95.01035,158.75 c 0.59809,-2.3375 1.51544,-5.55465 2.03855,-7.14922 1.37639,-4.19563 1.20801,-4.77666 -1.28098,-4.42033 -1.83476,0.26267 -2.42717,1.29859 -3.32802,5.81955 l -1.09594,5.5 -0.92801,-5.5 c -0.77552,-4.59625 -1.29674,-5.55251 -3.17198,-5.81955 C 86.00979,147.0047 85,147.38544 85,148.02654 c 0,0.98883 2.22921,9.6379 3.53708,13.72346 0.22008,0.6875 1.52193,1.25 2.89299,1.25 2.09551,0 2.66617,-0.6774 3.58028,-4.25 z M 121,157.40638 c 0,-4.75262 0.3007,-5.67225 2,-6.11663 1.1,-0.28766 2,-1.29926 2,-2.248 0,-1.36768 -0.9321,-1.73907 -4.5,-1.79301 l -4.5,-0.068 v 7.90965 c 0,7.77028 0.044,7.90964 2.5,7.90964 2.36871,0 2.5,-0.29376 2.5,-5.59362 z M 146,155 c 0,-7.33333 -0.16667,-8 -2,-8 -1.83333,0 -2,0.66667 -2,8 0,7.33333 0.16667,8 2,8 1.83333,0 2,-0.66667 2,-8 z m 11,6.5 c 0,-0.825 -0.45,-1.5 -1,-1.5 -0.55,0 -1,-2.25 -1,-5 0,-2.75 0.45,-5 1,-5 0.55,0 1,-0.675 1,-1.5 0,-0.825 -0.45,-1.5 -1,-1.5 -0.55,0 -1,-0.9 -1,-2 0,-2.73844 -1.62508,-2.50759 -4.54775,0.64602 C 147.86206,148.44088 147.34203,150 149,150 c 0.55,0 1,2.385 1,5.3 0,2.915 0.54,5.84 1.2,6.5 1.72526,1.72526 5.8,1.51449 5.8,-0.3 z m 25,0 c 0,-0.825 -0.45,-1.5 -1,-1.5 -0.55,0 -1,-2.25 -1,-5 0,-2.75 0.45,-5 1,-5 0.55,0 1,-0.675 1,-1.5 0,-0.825 -0.45,-1.5 -1,-1.5 -0.55,0 -1,-0.9 -1,-2 0,-2.63471 -1.32971,-2.5257 -4.44848,0.36467 C 172.94708,147.77838 172.20347,150 174,150 c 0.55,0 1,2.385 1,5.3 0,2.915 0.54,5.84 1.2,6.5 1.72526,1.72526 5.8,1.51449 5.8,-0.3 z M 164,143 c 0,-1.11111 -0.66667,-2 -1.5,-2 -0.83333,0 -1.5,0.88889 -1.5,2 0,1.11111 0.66667,2 1.5,2 0.83333,0 1.5,-0.88889 1.5,-2 z m 6,0 c 0,-1.33333 -0.66667,-2 -2,-2 -1.92719,0 -2.7099,1.95677 -1.33333,3.33333 C 168.04323,145.7099 170,144.92719 170,143 Z m -88,-1.06955 c 0,-1.57185 -0.53864,-1.9927 -2.23978,-1.75 C 76.43647,140.65465 76.14434,144 79.42668,144 81.36216,144 82,143.48703 82,141.93045 Z M 146,142 c 0,-1.27273 -0.66667,-2 -1.83333,-2 -2.35918,0 -3.16509,0.84053 -2.49078,2.59777 C 142.52476,144.80989 146,144.32947 146,142 Z m -15,-16.87115 18.5,-9.79736 0.27554,-15.07155 0.27554,-15.071558 -13.44154,-7.094191 C 129.2167,74.192386 122.91756,71 122.61146,71 c -0.3061,0 -0.6814,6.4125 -0.834,14.25 L 121.5,99.5 l -5.24902,2.81295 -5.24902,2.81294 -5.00098,-2.72187 L 101,99.682142 V 85.341071 C 101,76.878569 100.60779,71 100.04319,71 c -0.52625,0 -7.06273,3.194799 -14.52551,7.099552 l -13.5687,7.099553 0.27551,15.017465 0.27551,15.01746 18.5,9.80864 c 10.175,5.39475 19.175,9.82549 20,9.84609 0.825,0.0206 9.825,-4.37136 20,-9.75991 z M 93,122.15203 76.5,113.40151 V 100.15432 86.907134 L 86.75,81.394173 97,75.881212 97.017,88.690606 97.034,101.5 l 7.01961,3.7886 7.01962,3.7886 6.95672,-3.7886 6.95672,-3.7886 0.007,-12.822499 0.007,-12.8225 10.99917,5.8225 10.99917,5.822499 8.3e-4,12.66572 8.3e-4,12.66572 -17.44631,9.08428 c -9.59547,4.99635 -18.03297,9.06235 -18.75,9.03556 -0.71765,-0.0268 -8.72931,-3.98646 -17.80431,-8.79925 z m 7.75,-54.407283 6.25,-3.17401 v -7.162924 c 0,-8.012726 1.25039,-10.063754 5.48701,-9.000428 2.41107,0.605138 2.51362,0.944273 2.52862,8.361667 l 0.0156,7.730948 17.50391,9.133146 17.50392,9.133146 L 149.76955,61.639133 149.5,40.511973 141.56208,36.255987 133.62417,32 H 111 88.37583 L 80.43792,36.255987 72.5,40.511973 72.23036,61.669663 71.96073,82.827353 83.23036,76.873055 C 89.42866,73.598192 97.3125,69.490453 100.75,67.744747 Z M 76,60.340063 V 44 H 86.5 97 V 54.95362 65.90724 L 86.5,71.293683 76,76.680125 Z M 135.75,71.375785 125,65.823802 V 54.911901 44 h 11 11 v 16.5 c 0,9.075 -0.1125,16.483748 -0.25,16.463884 -0.1375,-0.01986 -5.0875,-2.534508 -11,-5.588099 z m -15.5,-8.038066 C 119.4286,63.006278 119,60.587943 119,56.284744 c 0,-6.190543 -0.19165,-6.729338 -3.50521,-9.854429 -1.92787,-1.818212 -3.07252,-3.573258 -2.54367,-3.900102 C 114.50721,41.568492 112.95812,39 110.82145,39 c -1.45302,0 -1.89221,0.585879 -1.68666,2.25 0.17944,1.452693 -0.85828,3.374408 -2.92843,5.423077 C 103.24453,49.604163 103,50.347736 103,56.423077 103,60.289228 102.57342,63 101.96502,63 c -0.6636,0 -0.93273,-3.60928 -0.75,-10.05851 L 101.5,42.882981 l 4.79287,-2.633225 4.79287,-2.633225 5.45363,2.941734 5.45364,2.941735 0.003,10.25 c 0.002,5.6375 -0.109,10.214474 -0.2465,10.171053 -0.1375,-0.04342 -0.8125,-0.305921 -1.5,-0.583334 z M 84.77417,37.996262 c 2.66512,-1.624924 4.99033,-1.988465 12.5,-1.954346 L 106.5,36.083831 103,38 c -2.69571,1.475839 -5.56817,1.924942 -12.5,1.954346 l -9,0.03818 3.27417,-1.996262 z M 119,38 l -3.5,-1.916169 9.22583,-0.04192 c 7.50967,-0.03412 9.83488,0.329422 12.5,1.954346 l 3.27417,1.996262 -9,-0.03818 C 124.56817,39.924939 121.69571,39.475839 119,38 Z"
       id="path857" />
  </g>
</svg>
