<?xml version="1.0" encoding="UTF-8" standalone="no"?>
<svg
   xmlns:dc="http://purl.org/dc/elements/1.1/"
   xmlns:cc="http://creativecommons.org/ns#"
   xmlns:rdf="http://www.w3.org/1999/02/22-rdf-syntax-ns#"
   xmlns:svg="http://www.w3.org/2000/svg"
   xmlns="http://www.w3.org/2000/svg"
   xmlns:sodipodi="http://sodipodi.sourceforge.net/DTD/sodipodi-0.dtd"
   xmlns:inkscape="http://www.inkscape.org/namespaces/inkscape"
   version="1.1"
   id="svg2"
   width="225"
   height="225"
   viewBox="0 0 225 225"
   sodipodi:docname="uos-logo-2.svg"
   inkscape:version="1.0.2 (e86c870879, 2021-01-15)">
  <metadata
     id="metadata8">
    <rdf:RDF>
      <cc:Work
         rdf:about="">
        <dc:format>image/svg+xml</dc:format>
        <dc:type
           rdf:resource="http://purl.org/dc/dcmitype/StillImage" />
        <dc:title></dc:title>
      </cc:Work>
    </rdf:RDF>
  </metadata>
  <defs
     id="defs6" />
  <sodipodi:namedview
     pagecolor="#ffffff"
     bordercolor="#666666"
     borderopacity="1"
     objecttolerance="10"
     gridtolerance="10"
     guidetolerance="10"
     inkscape:pageopacity="0"
     inkscape:pageshadow="2"
     inkscape:window-width="1280"
     inkscape:window-height="693"
     id="namedview4"
     showgrid="false"
     inkscape:zoom="1"
     inkscape:cx="132.78638"
     inkscape:cy="122.81189"
     inkscape:window-x="0"
     inkscape:window-y="0"
     inkscape:window-maximized="1"
     inkscape:current-layer="g10"
     inkscape:document-rotation="0" />
  <g
     inkscape:groupmode="layer"
     inkscape:label="Image"
     id="g10">
    <path
       style="font-variation-settings:normal;opacity:1;vector-effect:none;fill:#ad0e33;fill-opacity:1;stroke-width:0.764763;stroke-linecap:butt;stroke-linejoin:miter;stroke-miterlimit:4;stroke-dasharray:none;stroke-dashoffset:0;stroke-opacity:1;stop-color:#000000;stop-opacity:1"
       d="M 0,68.721119 V 0 H 107.713 215.42601 V 68.721119 137.44224 H 107.713 0 Z"
       id="path859"
       sodipodi:nodetypes="ccccccccc" />
    <path
       style="font-variation-settings:normal;opacity:1;vector-effect:none;fill:#000000;fill-opacity:1;stroke-width:0.58178;stroke-linecap:butt;stroke-linejoin:miter;stroke-miterlimit:4;stroke-dasharray:none;stroke-dashoffset:0;stroke-opacity:1;stop-color:#000000;stop-opacity:1"
       d="m 0,177.21209 v -39.76985 h 107.713 107.71301 v 39.76985 39.76984 H 107.713 0 Z"
       id="path859-7"
       sodipodi:nodetypes="ccccccccc" />
    <path
       style="fill:#ffffff;fill-opacity:1"
       d="M 0,112.5 V 0 H 112.5 225 V 112.5 225 H 112.5 0 Z m 131,12.62885 18.5,-9.79736 0.27554,-15.07155 0.27554,-15.071558 -13.44154,-7.094191 C 129.2167,74.192386 122.91756,71 122.61146,71 c -0.3061,0 -0.6814,6.4125 -0.834,14.25 L 121.5,99.5 l -5.24902,2.81295 -5.24902,2.81294 -5.00098,-2.72187 L 101,99.682142 V 85.341071 C 101,76.878569 100.60779,71 100.04319,71 c -0.52625,0 -7.06273,3.194799 -14.52551,7.099552 l -13.5687,7.099553 0.27551,15.017465 0.27551,15.01746 18.5,9.80864 c 10.175,5.39475 19.175,9.82549 20,9.84609 0.825,0.0206 9.825,-4.37136 20,-9.75991 z M 93,122.15203 76.5,113.40151 V 100.15432 86.907134 L 86.75,81.394173 97,75.881212 97.017,88.690606 97.034,101.5 l 7.01961,3.7886 7.01962,3.7886 6.95672,-3.7886 6.95672,-3.7886 0.007,-12.822499 0.007,-12.8225 10.99917,5.8225 10.99917,5.822499 8.3e-4,12.66572 8.3e-4,12.66572 -17.44631,9.08428 c -9.59547,4.99635 -18.03297,9.06235 -18.75,9.03556 -0.71765,-0.0268 -8.72931,-3.98646 -17.80431,-8.79925 z m 7.75,-54.407283 6.25,-3.17401 v -7.162924 c 0,-8.012726 1.25039,-10.063754 5.48701,-9.000428 2.41107,0.605138 2.51362,0.944273 2.52862,8.361667 l 0.0156,7.730948 17.50391,9.133146 17.50392,9.133146 L 149.76955,61.639133 149.5,40.511973 141.56208,36.255987 133.62417,32 H 111 88.37583 L 80.43792,36.255987 72.5,40.511973 72.23036,61.669663 71.96073,82.827353 83.23036,76.873055 C 89.42866,73.598192 97.3125,69.490453 100.75,67.744747 Z M 76,60.340063 V 44 H 86.5 97 V 54.95362 65.90724 L 86.5,71.293683 76,76.680125 Z M 135.75,71.375785 125,65.823802 V 54.911901 44 h 11 11 v 16.5 c 0,9.075 -0.1125,16.483748 -0.25,16.463884 -0.1375,-0.01986 -5.0875,-2.534508 -11,-5.588099 z m -15.5,-8.038066 C 119.4286,63.006278 119,60.587943 119,56.284744 c 0,-6.190543 -0.19165,-6.729338 -3.50521,-9.854429 -1.92787,-1.818212 -3.07252,-3.573258 -2.54367,-3.900102 C 114.50721,41.568492 112.95812,39 110.82145,39 c -1.45302,0 -1.89221,0.585879 -1.68666,2.25 0.17944,1.452693 -0.85828,3.374408 -2.92843,5.423077 C 103.24453,49.604163 103,50.347736 103,56.423077 103,60.289228 102.57342,63 101.96502,63 c -0.6636,0 -0.93273,-3.60928 -0.75,-10.05851 L 101.5,42.882981 l 4.79287,-2.633225 4.79287,-2.633225 5.45363,2.941734 5.45364,2.941735 0.003,10.25 c 0.002,5.6375 -0.109,10.214474 -0.2465,10.171053 -0.1375,-0.04342 -0.8125,-0.305921 -1.5,-0.583334 z M 84.77417,37.996262 c 2.66512,-1.624924 4.99033,-1.988465 12.5,-1.954346 L 106.5,36.083831 103,38 c -2.69571,1.475839 -5.56817,1.924942 -12.5,1.954346 l -9,0.03818 3.27417,-1.996262 z M 119,38 l -3.5,-1.916169 9.22583,-0.04192 c 7.50967,-0.03412 9.83488,0.329422 12.5,1.954346 l 3.27417,1.996262 -9,-0.03818 C 124.56817,39.924939 121.69571,39.475839 119,38 Z"
       id="path857"
       sodipodi:nodetypes="cccccccccscccssscccccssscccsssccccccccccccccccccssscscssccccccccccccccsscccccccccscccccssscsssssssssccccccsccsscssccsscsscss" />
    <text
       xml:space="preserve"
       style="font-style:normal;font-weight:normal;font-size:22.6667px;line-height:1.25;font-family:sans-serif;letter-spacing:0px;word-spacing:0px;fill:#000000;fill-opacity:1;stroke:none"
       x="110.10126"
       y="163.50974"
       id="text835"><tspan
         sodipodi:role="line"
         id="tspan833"
         x="110.10126"
         y="163.50974"
         style="font-style:normal;font-variant:normal;font-weight:bold;font-stretch:normal;font-size:22.6667px;font-family:sans-serif;-inkscape-font-specification:'sans-serif Bold';text-align:center;text-anchor:middle">Universität</tspan><tspan
         sodipodi:role="line"
         x="110.10126"
         y="191.84311"
         id="tspan837"
         style="font-style:normal;font-variant:normal;font-weight:bold;font-stretch:normal;font-size:22.6667px;font-family:sans-serif;-inkscape-font-specification:'sans-serif Bold';text-align:center;text-anchor:middle">Osnabrück</tspan></text>
  </g>
</svg>
